<?xml version="1.0" encoding="UTF-8"?>
<svg xmlns="http://www.w3.org/2000/svg" xmlns:xlink="http://www.w3.org/1999/xlink" width="81px" height="93px" viewBox="0 0 81 92" version="1.1">
<g id="surface1">
<path style=" stroke:none;fill-rule:nonzero;fill:rgb(35.686275%,91.372549%,72.54902%);fill-opacity:1;" d="M 81 41.535156 C 81 18.59375 62.867188 0 40.5 0 C 18.132812 0 0 18.59375 0 41.535156 C 0 64.472656 18.132812 83.066406 40.5 83.066406 C 62.867188 83.066406 81 64.472656 81 41.535156 Z M 81 41.535156 "/>
<path style=" stroke:none;fill-rule:evenodd;fill:rgb(0%,0%,0%);fill-opacity:1;" d="M 17.28125 14.171875 C 17.953125 12.828125 19.402344 11.898438 21.078125 11.898438 C 23.402344 11.898438 25.289062 13.683594 25.289062 15.882812 C 25.289062 16.609375 25.078125 17.296875 24.714844 17.886719 C 27.003906 19.265625 29.46875 20.921875 32.046875 22.824219 C 34.316406 22.503906 36.847656 22.320312 39.519531 22.320312 C 42.226562 22.320312 44.796875 22.503906 47.089844 22.839844 C 52.117188 19.132812 56.730469 16.332031 60.425781 14.746094 C 62.292969 13.949219 63.957031 13.445312 65.34375 13.308594 C 66.71875 13.167969 67.921875 13.382812 68.722656 14.144531 C 69.570312 14.945312 69.777344 16.167969 69.574219 17.574219 C 69.386719 18.890625 68.835938 20.460938 67.972656 22.21875 C 69.015625 22.945312 69.699219 24.113281 69.699219 25.433594 C 69.699219 27.632812 67.8125 29.414062 65.488281 29.414062 C 64.886719 29.414062 64.308594 29.292969 63.789062 29.074219 C 61.984375 31.621094 59.808594 34.371094 57.316406 37.230469 L 57.316406 46.382812 C 61.722656 51.53125 65.078125 56.292969 67.011719 60.113281 C 67.988281 62.035156 68.613281 63.746094 68.8125 65.160156 C 69.015625 66.566406 68.8125 67.789062 67.960938 68.589844 C 67.140625 69.371094 65.902344 69.574219 64.480469 69.417969 C 63.160156 69.269531 61.59375 68.796875 59.839844 68.0625 C 59.089844 69.152344 57.789062 69.878906 56.308594 69.878906 C 53.984375 69.878906 52.101562 68.097656 52.101562 65.898438 C 52.101562 65.265625 52.253906 64.667969 52.53125 64.140625 C 50.625 62.945312 48.605469 61.570312 46.515625 60.03125 C 44.371094 60.3125 42.003906 60.46875 39.519531 60.46875 C 37.074219 60.46875 34.742188 60.316406 32.625 60.042969 C 27.640625 63.703125 23.078125 66.460938 19.417969 68.019531 C 17.566406 68.804688 15.917969 69.296875 14.546875 69.429688 C 13.183594 69.5625 11.992188 69.347656 11.195312 68.59375 C 10.144531 67.597656 10.074219 65.964844 10.5625 64.085938 C 11.035156 62.261719 12.070312 60.039062 13.570312 57.546875 C 12.734375 56.820312 12.203125 55.773438 12.203125 54.609375 C 12.203125 52.410156 14.089844 50.628906 16.410156 50.628906 C 17.015625 50.628906 17.597656 50.75 18.117188 50.96875 C 19.21875 49.53125 20.421875 48.046875 21.722656 46.523438 L 21.722656 37.09375 C 17.109375 31.785156 13.574219 26.851562 11.527344 22.898438 C 10.496094 20.910156 9.824219 19.136719 9.597656 17.675781 C 9.371094 16.226562 9.566406 14.964844 10.433594 14.140625 C 11.167969 13.449219 12.238281 13.210938 13.460938 13.277344 C 14.5625 13.339844 15.847656 13.652344 17.28125 14.171875 Z M 16.945312 15.140625 C 15.550781 14.628906 14.359375 14.347656 13.394531 14.296875 C 12.332031 14.234375 11.625 14.453125 11.195312 14.863281 C 10.683594 15.34375 10.453125 16.199219 10.660156 17.527344 C 10.863281 18.839844 11.480469 20.503906 12.492188 22.453125 C 14.367188 26.070312 17.546875 30.578125 21.71875 35.480469 L 21.71875 28.027344 C 21.71875 27.351562 22.046875 26.738281 22.566406 26.207031 C 23.082031 25.679688 23.8125 25.207031 24.695312 24.789062 C 26.207031 24.074219 28.238281 23.480469 30.605469 23.054688 C 28.300781 21.386719 26.101562 19.925781 24.058594 18.695312 C 23.296875 19.417969 22.242188 19.863281 21.078125 19.863281 C 18.757812 19.863281 16.871094 18.082031 16.871094 15.882812 C 16.871094 15.628906 16.898438 15.382812 16.945312 15.140625 Z M 22.796875 30.0625 L 22.796875 36.726562 C 23.5 37.535156 24.230469 38.347656 24.984375 39.171875 C 25.757812 39.558594 26.722656 39.917969 27.839844 40.238281 C 30.867188 41.09375 34.980469 41.628906 39.519531 41.628906 C 44.105469 41.628906 48.25 41.082031 51.289062 40.210938 C 52.480469 39.867188 53.484375 39.476562 54.277344 39.058594 C 54.953125 38.320312 55.609375 37.585938 56.242188 36.863281 L 56.242188 30.0625 C 56.210938 30.089844 56.175781 30.121094 56.144531 30.148438 C 55.4375 30.746094 54.4375 31.277344 53.234375 31.730469 C 50.824219 32.644531 47.476562 33.304688 43.671875 33.585938 C 42.339844 33.683594 40.949219 33.734375 39.519531 33.734375 C 38.128906 33.734375 36.773438 33.683594 35.476562 33.59375 C 31.640625 33.316406 28.269531 32.660156 25.839844 31.746094 C 24.625 31.289062 23.617188 30.757812 22.902344 30.15625 C 22.867188 30.125 22.828125 30.09375 22.796875 30.0625 Z M 56.242188 28.027344 C 56.242188 28.4375 56.007812 28.898438 55.429688 29.386719 C 54.847656 29.882812 53.976562 30.355469 52.835938 30.789062 C 50.558594 31.652344 47.328125 32.296875 43.585938 32.570312 C 42.285156 32.664062 40.921875 32.714844 39.519531 32.714844 C 38.152344 32.714844 36.828125 32.667969 35.558594 32.578125 C 31.789062 32.308594 28.53125 31.664062 26.234375 30.800781 C 25.085938 30.367188 24.203125 29.890625 23.617188 29.398438 C 23.03125 28.902344 22.796875 28.441406 22.796875 28.027344 C 22.796875 27.679688 22.957031 27.304688 23.355469 26.898438 C 23.753906 26.492188 24.363281 26.085938 25.175781 25.699219 C 26.804688 24.925781 29.152344 24.28125 31.980469 23.863281 C 34.25 23.527344 36.808594 23.339844 39.519531 23.339844 C 42.265625 23.339844 44.859375 23.53125 47.152344 23.878906 C 49.953125 24.300781 52.277344 24.941406 53.886719 25.710938 C 54.695312 26.097656 55.296875 26.503906 55.691406 26.90625 C 56.082031 27.308594 56.242188 27.683594 56.242188 28.027344 Z M 57.316406 28.027344 L 57.316406 35.621094 C 59.429688 33.144531 61.296875 30.765625 62.867188 28.546875 C 61.902344 27.820312 61.28125 26.695312 61.28125 25.433594 C 61.28125 23.234375 63.164062 21.449219 65.488281 21.449219 C 66.03125 21.449219 66.550781 21.550781 67.027344 21.726562 C 67.847656 20.046875 68.34375 18.601562 68.507812 17.4375 C 68.691406 16.160156 68.460938 15.332031 67.960938 14.863281 C 67.488281 14.414062 66.6875 14.195312 65.457031 14.320312 C 64.230469 14.441406 62.683594 14.898438 60.867188 15.675781 C 57.464844 17.132812 53.214844 19.675781 48.527344 23.074219 C 50.871094 23.5 52.878906 24.089844 54.371094 24.804688 C 55.246094 25.21875 55.96875 25.691406 56.480469 26.214844 C 56.992188 26.746094 57.316406 27.355469 57.316406 28.027344 Z M 52.589844 40.875 C 52.527344 40.894531 52.460938 40.917969 52.398438 40.9375 C 52.421875 40.960938 52.441406 40.980469 52.464844 41.003906 C 52.503906 40.960938 52.546875 40.917969 52.589844 40.875 Z M 51.738281 41.765625 C 51.582031 41.601562 51.429688 41.4375 51.273438 41.273438 C 48.148438 42.128906 44.023438 42.644531 39.519531 42.644531 C 35.058594 42.644531 30.972656 42.140625 27.859375 41.300781 C 27.710938 41.457031 27.5625 41.609375 27.417969 41.765625 C 29.164062 43.582031 31.019531 45.425781 32.960938 47.265625 C 34.121094 48.359375 35.277344 49.425781 36.425781 50.457031 C 37.429688 50.511719 38.464844 50.539062 39.519531 50.539062 C 40.617188 50.539062 41.695312 50.507812 42.734375 50.449219 C 43.882812 49.421875 45.039062 48.359375 46.191406 47.265625 C 48.140625 45.425781 49.992188 43.582031 51.738281 41.765625 Z M 44.433594 50.324219 C 45.269531 49.5625 46.109375 48.78125 46.953125 47.984375 C 49.03125 46.019531 51.007812 44.050781 52.859375 42.109375 C 53.582031 41.351562 54.285156 40.597656 54.96875 39.851562 C 55.453125 39.585938 55.882812 39.292969 56.242188 38.972656 L 56.242188 45.851562 C 56.242188 45.988281 56.214844 46.128906 56.164062 46.269531 C 56.007812 46.6875 55.601562 47.148438 54.890625 47.609375 C 54.1875 48.066406 53.226562 48.503906 52.046875 48.886719 C 50.027344 49.550781 47.40625 50.054688 44.433594 50.324219 Z M 41.523438 51.523438 C 40.867188 51.542969 40.195312 51.554688 39.519531 51.554688 C 38.882812 51.554688 38.253906 51.546875 37.636719 51.527344 C 38.285156 52.097656 38.933594 52.65625 39.578125 53.203125 C 40.222656 52.65625 40.875 52.09375 41.523438 51.523438 Z M 40.386719 53.882812 C 41.316406 53.089844 42.253906 52.277344 43.191406 51.441406 C 46.777344 51.210938 49.972656 50.644531 52.398438 49.847656 C 53.632812 49.445312 54.6875 48.976562 55.5 48.445312 C 55.773438 48.269531 56.023438 48.085938 56.242188 47.886719 L 56.242188 54.761719 C 56.242188 55.117188 56.070312 55.507812 55.648438 55.921875 C 55.226562 56.339844 54.585938 56.757812 53.722656 57.152344 C 52.054688 57.917969 49.667969 58.554688 46.8125 58.957031 C 44.734375 57.417969 42.582031 55.722656 40.386719 53.882812 Z M 38.769531 53.882812 C 37.84375 53.09375 36.910156 52.28125 35.972656 51.449219 C 32.410156 51.226562 29.226562 50.675781 26.785156 49.898438 C 25.546875 49.5 24.480469 49.039062 23.65625 48.523438 C 23.339844 48.324219 23.046875 48.109375 22.796875 47.886719 L 22.796875 54.761719 C 22.796875 55.121094 22.96875 55.507812 23.394531 55.929688 C 23.820312 56.351562 24.472656 56.769531 25.339844 57.164062 C 27.03125 57.9375 29.445312 58.570312 32.324219 58.972656 C 34.40625 57.429688 36.566406 55.726562 38.769531 53.882812 Z M 33.8125 59.15625 C 35.6875 57.746094 37.617188 56.207031 39.578125 54.566406 C 41.53125 56.203125 43.457031 57.738281 45.328125 59.144531 C 43.519531 59.34375 41.5625 59.449219 39.519531 59.449219 C 37.515625 59.449219 35.59375 59.347656 33.8125 59.15625 Z M 31.15625 59.828125 C 28.644531 59.414062 26.484375 58.816406 24.875 58.082031 C 23.941406 57.65625 23.167969 57.171875 22.617188 56.632812 C 22.070312 56.089844 21.722656 55.460938 21.722656 54.761719 L 21.722656 48.152344 C 20.769531 49.292969 19.875 50.410156 19.039062 51.496094 C 20 52.226562 20.617188 53.351562 20.617188 54.609375 C 20.617188 56.808594 18.734375 58.589844 16.410156 58.589844 C 15.707031 58.589844 15.039062 58.421875 14.453125 58.132812 C 13.003906 60.554688 12.039062 62.652344 11.605469 64.328125 C 11.136719 66.144531 11.332031 67.28125 11.953125 67.871094 C 12.421875 68.316406 13.21875 68.535156 14.4375 68.417969 C 15.644531 68.300781 17.175781 67.855469 18.976562 67.089844 C 22.335938 65.660156 26.527344 63.164062 31.15625 59.828125 Z M 22.796875 45.851562 C 22.796875 46.011719 22.828125 46.171875 22.902344 46.335938 C 23.085938 46.761719 23.519531 47.214844 24.25 47.675781 C 24.972656 48.128906 25.941406 48.554688 27.128906 48.933594 C 29.164062 49.582031 31.777344 50.074219 34.738281 50.335938 C 33.894531 49.570312 33.050781 48.785156 32.203125 47.984375 C 30.125 46.019531 28.152344 44.050781 26.292969 42.109375 C 25.613281 41.394531 24.949219 40.683594 24.300781 39.976562 C 23.726562 39.679688 23.210938 39.34375 22.796875 38.972656 Z M 26.625 40.933594 C 26.644531 40.957031 26.667969 40.980469 26.695312 41.003906 C 26.707031 40.992188 26.714844 40.980469 26.730469 40.96875 C 26.695312 40.957031 26.65625 40.945312 26.625 40.933594 Z M 47.976562 59.808594 C 49.765625 61.097656 51.484375 62.265625 53.121094 63.292969 C 53.894531 62.449219 55.035156 61.914062 56.304688 61.914062 C 58.628906 61.914062 60.515625 63.695312 60.515625 65.894531 C 60.515625 66.328125 60.441406 66.746094 60.304688 67.140625 C 61.992188 67.847656 63.4375 68.277344 64.605469 68.40625 C 65.886719 68.550781 66.71875 68.328125 67.203125 67.871094 C 67.699219 67.398438 67.929688 66.574219 67.75 65.296875 C 67.566406 64.03125 66.992188 62.425781 66.042969 60.550781 C 64.28125 57.074219 61.277344 52.742188 57.316406 48.011719 L 57.316406 54.761719 C 57.316406 55.457031 56.972656 56.082031 56.425781 56.625 C 55.886719 57.160156 55.121094 57.644531 54.195312 58.066406 C 52.601562 58.800781 50.460938 59.394531 47.976562 59.808594 Z M 21.082031 12.917969 C 19.683594 12.917969 18.496094 13.785156 18.09375 14.984375 C 18 15.265625 17.945312 15.566406 17.945312 15.882812 C 17.945312 17.519531 19.351562 18.847656 21.082031 18.847656 C 22.074219 18.847656 22.964844 18.40625 23.539062 17.71875 C 23.960938 17.214844 24.214844 16.574219 24.214844 15.882812 C 24.214844 14.242188 22.808594 12.917969 21.082031 12.917969 Z M 65.488281 22.46875 C 63.761719 22.46875 62.355469 23.796875 62.355469 25.433594 C 62.355469 26.511719 62.96875 27.460938 63.882812 27.976562 C 64.355469 28.242188 64.902344 28.398438 65.488281 28.398438 C 67.21875 28.398438 68.621094 27.070312 68.621094 25.433594 C 68.621094 24.324219 67.980469 23.355469 67.023438 22.847656 C 66.570312 22.605469 66.046875 22.46875 65.488281 22.46875 Z M 16.410156 51.644531 C 14.683594 51.644531 13.277344 52.972656 13.277344 54.609375 C 13.277344 55.597656 13.789062 56.476562 14.578125 57.011719 C 15.09375 57.363281 15.726562 57.570312 16.410156 57.570312 C 18.140625 57.570312 19.542969 56.246094 19.542969 54.609375 C 19.542969 53.523438 18.929688 52.574219 18.007812 52.054688 C 17.539062 51.796875 16.992188 51.644531 16.410156 51.644531 Z M 56.308594 62.929688 C 55.21875 62.929688 54.257812 63.457031 53.695312 64.257812 C 53.367188 64.726562 53.175781 65.289062 53.175781 65.894531 C 53.175781 67.53125 54.578125 68.859375 56.308594 68.859375 C 57.550781 68.859375 58.625 68.175781 59.128906 67.179688 C 59.328125 66.792969 59.441406 66.355469 59.441406 65.894531 C 59.441406 64.257812 58.035156 62.929688 56.308594 62.929688 Z M 56.308594 62.929688 "/>
</g>
</svg>
