<svg width="90" height="103" viewBox="0 0 90 103" fill="none" xmlns="http://www.w3.org/2000/svg">
<ellipse cx="45" cy="46.5" rx="45" ry="46.5" fill="#5BE9B9"/>
<path fill-rule="evenodd" clip-rule="evenodd" d="M19.2 15.8673C19.95 14.3622 21.5594 13.3222 23.4218 13.3222C26.0031 13.3222 28.0969 15.319 28.0969 17.7808C28.0969 18.5974 27.8656 19.3663 27.4625 20.025C30.0032 21.5687 32.7438 23.4255 35.6065 25.5535C38.1284 25.1928 40.944 24.9902 43.9097 24.9902C46.9191 24.9902 49.7753 25.1958 52.3225 25.5713C57.91 21.4198 63.0321 18.2844 67.1385 16.5112C69.2135 15.617 71.0635 15.0537 72.6041 14.8988C74.1323 14.7438 75.4666 14.9822 76.3572 15.8346C77.301 16.7317 77.5291 18.1027 77.3041 19.6763C77.0979 21.1486 76.4823 22.907 75.5259 24.877C76.6853 25.6876 77.4415 26.9959 77.4415 28.4742C77.4415 30.936 75.3478 32.9328 72.7665 32.9328C72.0946 32.9328 71.454 32.7957 70.8759 32.5513C68.8727 35.4035 66.454 38.4792 63.6852 41.6802V51.9298C68.579 57.6938 72.31 63.0256 74.4572 67.2997C75.5416 69.4515 76.2385 71.3678 76.4603 72.9504C76.6853 74.524 76.4572 75.8949 75.5135 76.792C74.601 77.6652 73.2228 77.8947 71.6447 77.7159C70.1791 77.552 68.4354 77.0245 66.4885 76.1989C65.6572 77.4209 64.2103 78.2345 62.5635 78.2345C59.9823 78.2345 57.8885 76.2377 57.8885 73.7759C57.8885 73.0695 58.0604 72.4019 58.3666 71.8089C56.251 70.4707 54.0073 68.9299 51.6822 67.2073C49.301 67.5232 46.6729 67.6991 43.9104 67.6991C41.1917 67.6991 38.6042 67.5292 36.251 67.2222C30.7135 71.3202 25.6414 74.4078 21.5758 76.1512C19.5196 77.0303 17.6883 77.5817 16.1634 77.7307C14.6478 77.8797 13.3258 77.6383 12.4384 76.7949C11.2728 75.6803 11.1946 73.8533 11.7353 71.7492C12.2603 69.7076 13.4103 67.2191 15.079 64.4265C14.1478 63.6129 13.5603 62.4416 13.5603 61.1392C13.5603 58.6774 15.6541 56.6806 18.2354 56.6806C18.9072 56.6806 19.551 56.8177 20.1291 57.0621C21.3541 55.4527 22.6916 53.7896 24.1354 52.0879V41.5285C19.0104 35.5857 15.0826 30.0635 12.8074 25.6375C11.6605 23.4082 10.9167 21.4263 10.6636 19.7901C10.4136 18.1688 10.6292 16.7531 11.5949 15.8322C12.4105 15.0574 13.598 14.7891 14.9574 14.8666C16.1792 14.9352 17.6105 15.2839 19.2011 15.868L19.2 15.8673ZM18.8281 16.9492C17.2781 16.38 15.9563 16.064 14.8844 16.0044C13.7031 15.9359 12.9157 16.1803 12.4375 16.6393C11.8719 17.1787 11.6157 18.1353 11.8437 19.6226C12.0719 21.0919 12.7562 22.9546 13.8781 25.1362C15.9625 29.1865 19.4969 34.2353 24.1341 39.7248V31.3773C24.1341 30.6203 24.4966 29.9348 25.0748 29.3417C25.6467 28.7516 26.4592 28.221 27.4404 27.7532C29.1185 26.9515 31.3748 26.2898 34.006 25.813C31.4466 23.9443 29.0029 22.3081 26.7309 20.9312C25.8841 21.7389 24.7153 22.2396 23.4216 22.2396C20.8403 22.2396 18.7465 20.2427 18.7465 17.781C18.7465 17.4978 18.775 17.2204 18.8281 16.9492ZM25.3281 33.6566V41.1193C26.1094 42.0223 26.9219 42.9343 27.7594 43.8552C28.6219 44.2903 29.6907 44.6927 30.9345 45.0473C34.2969 46.007 38.8657 46.6061 43.9097 46.6061C49.0065 46.6061 53.6129 45.9951 56.9881 45.0176C58.3099 44.6331 59.4287 44.198 60.3099 43.7271C61.0599 42.9016 61.7881 42.082 62.4912 41.2713V33.6565C62.4568 33.6893 62.4193 33.7221 62.3849 33.7519C61.5974 34.4225 60.488 35.0155 59.1505 35.5252C56.4724 36.5474 52.7536 37.2865 48.5257 37.5995C47.0444 37.7098 45.5008 37.7664 43.9101 37.7664C42.3664 37.7664 40.8601 37.7128 39.4195 37.6084C35.157 37.3015 31.4099 36.5653 28.7099 35.5401C27.3599 35.0305 26.2412 34.4344 25.4474 33.7609C25.4068 33.7281 25.3656 33.6924 25.3281 33.6566ZM62.4905 31.3766C62.4905 31.8386 62.2312 32.3541 61.5874 32.9025C60.9437 33.4539 59.9749 33.9844 58.7061 34.4702C56.1749 35.4358 52.5874 36.157 48.4309 36.4641C46.9841 36.5714 45.4685 36.628 43.9091 36.628C42.3935 36.628 40.9185 36.5743 39.5091 36.473C35.3216 36.172 31.7029 35.4508 29.1499 34.4821C27.8717 33.9993 26.8905 33.4629 26.2405 32.9115C25.5905 32.3601 25.3281 31.8416 25.3281 31.3766C25.3281 30.9892 25.5093 30.569 25.9499 30.116C26.3937 29.66 27.0686 29.204 27.9749 28.7719C29.7842 27.9076 32.3936 27.1864 35.5342 26.7155C38.0561 26.3399 40.8998 26.1283 43.9094 26.1283C46.9626 26.1283 49.8438 26.3459 52.3934 26.7334C55.5028 27.2072 58.0872 27.9255 59.8747 28.7868C60.7716 29.216 61.4403 29.672 61.8778 30.122C62.3122 30.572 62.4905 30.9922 62.4905 31.3766ZM63.6843 31.3766V39.8798C66.0343 37.1082 68.1061 34.4437 69.853 31.9611C68.7812 31.1445 68.0905 29.8867 68.0905 28.4741C68.0905 26.0123 70.1843 24.0155 72.7656 24.0155C73.3687 24.0155 73.9468 24.1258 74.4749 24.3254C75.3843 22.4418 75.9374 20.8236 76.1218 19.5241C76.3249 18.0906 76.0656 17.1667 75.5124 16.6392C74.9874 16.1385 74.0968 15.8911 72.728 16.0312C71.3687 16.1683 69.6499 16.6779 67.6312 17.5482C63.8499 19.1814 59.128 22.0276 53.9184 25.8332C56.5215 26.3101 58.7528 26.9687 60.4121 27.7705C61.384 28.2354 62.1872 28.7629 62.7559 29.35C63.3246 29.9431 63.6843 30.6256 63.6843 31.3766ZM58.4312 45.7623C58.3624 45.7861 58.2905 45.81 58.2218 45.8308C58.2468 45.8577 58.2687 45.8815 58.2937 45.9083C58.3374 45.8606 58.3843 45.81 58.4312 45.7623ZM57.4874 46.7577C57.3155 46.5759 57.1437 46.3911 56.9718 46.2093C53.4967 47.166 48.9158 47.7442 43.9094 47.7442C38.9532 47.7442 34.4126 47.1779 30.9534 46.2391C30.7878 46.412 30.6253 46.5848 30.4628 46.7577C32.4034 48.7933 34.4659 50.8556 36.6252 52.918C37.9128 54.1429 39.1971 55.3351 40.4752 56.4884C41.5877 56.551 42.7377 56.5808 43.9096 56.5808C45.1315 56.5808 46.3284 56.548 47.4847 56.4795C48.7597 55.3291 50.044 54.1399 51.3253 52.918C53.4878 50.8556 55.5468 48.7933 57.4874 46.7577ZM49.369 56.3398C50.3003 55.4874 51.2346 54.6142 52.169 53.723C54.4784 51.5206 56.6753 49.3182 58.7346 47.1425C59.5377 46.2961 60.319 45.4527 61.0784 44.6181C61.6128 44.3201 62.094 43.9923 62.4909 43.6346V51.3329C62.4909 51.4849 62.4627 51.6429 62.4033 51.8008C62.2315 52.2687 61.7815 52.7844 60.9909 53.3029C60.2065 53.8156 59.1409 54.3014 57.8315 54.7335C55.5846 55.4756 52.6752 56.0387 49.369 56.3398ZM46.1377 57.6839C45.4065 57.7077 44.6627 57.7197 43.9096 57.7197C43.2033 57.7197 42.5065 57.7107 41.8189 57.6869C42.5408 58.3247 43.2596 58.9505 43.9752 59.5644C44.6939 58.9505 45.4159 58.3217 46.1377 57.6839ZM44.8721 60.3244C45.9065 59.4392 46.9472 58.5273 47.9909 57.5915C51.9753 57.3322 55.5253 56.7004 58.2221 55.8093C59.5939 55.3563 60.7658 54.8318 61.6658 54.2387C61.9689 54.042 62.2471 53.8333 62.4908 53.6128V61.308C62.4908 61.7074 62.3001 62.1426 61.8314 62.6074C61.3626 63.0783 60.6501 63.5433 59.6939 63.9844C57.8376 64.8427 55.1845 65.555 52.0157 66.008C49.7064 64.2853 47.3128 62.3838 44.8721 60.3244ZM43.0784 60.3244C42.0471 59.4423 41.0128 58.5332 39.969 57.6004C36.0097 57.3501 32.4721 56.7361 29.7626 55.8629C28.3845 55.4189 27.2001 54.9033 26.2845 54.3251C25.9313 54.1016 25.6095 53.8631 25.3282 53.6128V61.308C25.3282 61.7104 25.522 62.1456 25.9938 62.6164C26.4688 63.0873 27.1907 63.5582 28.1563 63.9992C30.0345 64.8635 32.7157 65.5729 35.9157 66.0258C38.2313 64.2973 40.6315 62.3898 43.0784 60.3244ZM37.569 66.2314C39.6534 64.6489 41.7972 62.9293 43.9753 61.0904C46.1471 62.9232 48.2877 64.6399 50.3659 66.2166C48.3534 66.4371 46.1784 66.5593 43.9097 66.5593C41.6847 66.5593 39.5503 66.443 37.569 66.2314ZM34.619 66.9795C31.8284 66.5176 29.4284 65.847 27.6377 65.0274C26.6002 64.5505 25.7409 64.0081 25.1315 63.4031C24.5221 62.7981 24.1346 62.0917 24.1346 61.3079V53.9108C23.0753 55.1864 22.0815 56.4381 21.1533 57.654C22.2221 58.4706 22.9065 59.7284 22.9065 61.138C22.9065 63.5998 20.8158 65.5936 18.2346 65.5936C17.4502 65.5936 16.7097 65.4088 16.0596 65.0839C14.4502 67.7931 13.3752 70.1445 12.894 72.0191C12.3721 74.0517 12.5908 75.3273 13.2815 75.9859C13.8033 76.4836 14.6877 76.731 16.0408 76.5969C17.3846 76.4658 19.0846 75.968 21.0846 75.1097C24.8159 73.5122 29.475 70.7167 34.619 66.9795ZM25.3286 51.3327C25.3286 51.5115 25.3661 51.6903 25.4474 51.8781C25.6505 52.3519 26.1317 52.8616 26.9442 53.3741C27.7474 53.8838 28.8255 54.3607 30.1442 54.7839C32.4036 55.5111 35.3067 56.0624 38.597 56.3545C37.6595 55.4962 36.722 54.62 35.7814 53.7229C33.4721 51.5205 31.2783 49.318 29.2158 47.1423C28.4596 46.3436 27.7221 45.5479 27.0002 44.7581C26.3627 44.4243 25.7909 44.0488 25.3284 43.6345L25.3286 51.3327ZM29.5817 45.828C29.6067 45.8549 29.6317 45.8817 29.6599 45.9085C29.6724 45.8936 29.6849 45.8787 29.7005 45.8668C29.6599 45.8519 29.6192 45.84 29.5817 45.828ZM53.3065 66.9613C55.2941 68.4038 57.2065 69.7092 59.0253 70.8596C59.8846 69.9149 61.1502 69.3158 62.5628 69.3158C65.1441 69.3158 67.2378 71.3127 67.2378 73.7745C67.2378 74.2602 67.1566 74.7282 67.0034 75.1692C68.8816 75.962 70.4878 76.4389 71.7847 76.5849C73.2066 76.7458 74.1316 76.4985 74.6691 75.9859C75.2222 75.4583 75.4785 74.5345 75.2785 73.1039C75.0754 71.6853 74.4379 69.8912 73.3816 67.79C71.4254 63.8977 68.0879 59.0488 63.6848 53.753V61.3081C63.6848 62.0889 63.3036 62.7893 62.6973 63.3944C62.0942 63.9964 61.2442 64.5358 60.216 65.0097C58.4473 65.8293 56.069 66.4964 53.3065 66.9613ZM23.4225 14.4626C21.8694 14.4626 20.5507 15.4342 20.1038 16.7753C20.0007 17.0912 19.9413 17.428 19.9413 17.7797C19.9413 19.6126 21.5007 21.0998 23.4226 21.0998C24.5288 21.0998 25.5164 20.608 26.1539 19.8362C26.6226 19.2729 26.9039 18.5576 26.9039 17.7798C26.9039 15.9469 25.3445 14.4626 23.4225 14.4626ZM72.7665 25.1563C70.8447 25.1563 69.2853 26.6405 69.2853 28.4735C69.2853 29.6834 69.9634 30.7445 70.9821 31.3227C71.504 31.6207 72.1134 31.7936 72.7665 31.7936C74.6884 31.7936 76.2478 30.3064 76.2478 28.4734C76.2478 27.2336 75.5322 26.1488 74.4696 25.5795C73.9665 25.3083 73.3853 25.1563 72.7665 25.1563ZM18.2353 57.818C16.3135 57.818 14.7541 59.3052 14.7541 61.1381C14.7541 62.2438 15.3228 63.2273 16.1978 63.8293C16.7728 64.2227 17.4729 64.4552 18.2353 64.4552C20.1572 64.4552 21.7135 62.971 21.7135 61.138C21.7135 59.922 21.0322 58.8581 20.0073 58.2799C19.4885 57.9878 18.8822 57.818 18.2353 57.818ZM62.5633 70.4542C61.354 70.4542 60.2852 71.0443 59.6602 71.9414C59.2977 72.4659 59.0852 73.0947 59.0852 73.7742C59.0852 75.6071 60.6414 77.0914 62.5634 77.0914C63.9446 77.0914 65.1384 76.3284 65.7009 75.2138C65.9196 74.7787 66.0446 74.2899 66.0446 73.7743C66.0446 71.9414 64.4853 70.4542 62.5633 70.4542Z" fill="black"/>
</svg>
